<?xml version="1.0" encoding="UTF-8" standalone="no"?>
<!-- Created with Inkscape (http://www.inkscape.org/) -->

<svg
   width="48.851345mm"
   height="54.47364mm"
   viewBox="0 0 48.851345 54.47364"
   version="1.1"
   id="svg1"
   xmlns:xlink="http://www.w3.org/1999/xlink"
   xmlns="http://www.w3.org/2000/svg"
   xmlns:svg="http://www.w3.org/2000/svg">
  <defs
     id="defs1">
    <marker
       style="overflow:visible"
       id="ArrowTriangleStylized"
       refX="0"
       refY="0"
       orient="auto-start-reverse"
       markerWidth="1"
       markerHeight="1"
       viewBox="0 0 1 1"
       preserveAspectRatio="xMidYMid">
      <path
         transform="scale(0.5)"
         style="fill:context-stroke;fill-rule:evenodd;stroke:context-stroke;stroke-width:1pt"
         d="m 6,0 c -3,1 -7,3 -9,5 0,0 0,-4 2,-5 -2,-1 -2,-5 -2,-5 2,2 6,4 9,5 z"
         id="path53" />
    </marker>
    <marker
       style="overflow:visible"
       id="ArrowTriangleStylized-4"
       refX="0"
       refY="0"
       orient="auto-start-reverse"
       markerWidth="1"
       markerHeight="1"
       viewBox="0 0 1 1"
       preserveAspectRatio="xMidYMid">
      <path
         transform="scale(0.5)"
         style="fill:context-stroke;fill-rule:evenodd;stroke:context-stroke;stroke-width:1pt"
         d="m 6,0 c -3,1 -7,3 -9,5 0,0 0,-4 2,-5 -2,-1 -2,-5 -2,-5 2,2 6,4 9,5 z"
         id="path53-8" />
    </marker>
  </defs>
  <g
     id="layer1"
     transform="translate(-239.59165,-85.334482)">
    <g
       id="g156">
      <path
         style="fill:#ff0000;fill-opacity:0.502404;stroke:#000000;stroke-width:0.765;stroke-dasharray:none;marker-end:url(#ArrowTriangleStylized)"
         d="M 8.0676387,305.04943 V 228.2808"
         id="path105" />
    </g>
    <text
       xml:space="preserve"
       style="font-size:3.52777px;font-family:sans-serif;-inkscape-font-specification:sans-serif;text-align:start;word-spacing:0px;writing-mode:lr-tb;direction:ltr;text-anchor:start;fill:#000000;fill-opacity:1;stroke:#000000;stroke-width:0.765;stroke-dasharray:none"
       id="text156-2"
       x="-1.003796e-08"
       y="0"
       transform="translate(235.57609,-168.19165)"><textPath
         xlink:href="#path105"
         id="textPath156-7"
         style="word-spacing:0px;fill:#000000;fill-opacity:1;stroke:none;stroke-width:0.765"
         dx="25"
         dy="-1.47">energia</textPath></text>
    <path
       style="fill:#ff0000;fill-opacity:0.502404;stroke:#000000;stroke-width:0.629143;stroke-dasharray:none;marker-end:url(#ArrowTriangleStylized-4)"
       d="M 243.64373,139.80811 V 87.88508"
       id="path158-6" />
    <path
       style="fill:none;fill-opacity:1;stroke:#000000;stroke-width:0.765;stroke-dasharray:none;stroke-opacity:1"
       d="m 243.64373,112.57129 h 7.4215 l 4.79023,-17.877374 h 10.74929 l 7.40001,27.617224 h 14.43823"
       id="path164-7" />
    <path
       style="fill:none;stroke:#0000ff;stroke-width:1;stroke-dasharray:1, 1;stroke-opacity:1"
       d="m 251.06523,112.57129 3.65407,-6.32905 h 12.5094 l 6.77605,16.0689"
       id="path30" />
    <path
       style="fill:none;stroke:#44aa00;stroke-width:1;stroke-dasharray:1, 1;stroke-opacity:1"
       d="m 243.64373,112.57129 h 7.4215"
       id="path60" />
    <path
       style="fill:none;stroke:#ff0000;stroke-width:1;stroke-dasharray:1, 1;stroke-opacity:1"
       d="m 255.85546,94.693916 h 10.74929"
       id="path75" />
    <path
       style="fill:none;stroke:#ffcc00;stroke-width:1;stroke-dasharray:1, 1;stroke-opacity:1"
       d="m 274.00475,122.31114 h 14.43823"
       id="path82" />
  </g>
</svg>
